<svg version="1.1" id="Layer_1" xmlns="http://www.w3.org/2000/svg" xmlns:xlink="http://www.w3.org/1999/xlink" x="0px" y="0px"
	 width="100%" viewBox="0 0 1024 1024" enable-background="new 0 0 1024 1024" xml:space="preserve">
<path fill="#000000" opacity="1.000000" stroke="none" 
	d="
M277.707031,526.926025 
	C281.868988,529.117920 283.185730,532.408447 283.172729,536.598450 
	C283.104950,558.426819 283.135651,580.255493 283.116302,602.084045 
	C283.114227,604.416687 283.197723,606.823059 282.002594,608.921204 
	C277.003632,617.697327 280.535004,624.796021 286.245514,631.566284 
	C288.357422,634.070190 291.323181,635.823486 293.210114,639.522461 
	C275.311890,646.965149 256.744873,647.450317 238.271057,646.087463 
	C203.971436,643.557251 174.926147,629.145020 151.017242,604.511353 
	C100.227455,552.181763 98.970284,468.509308 143.570740,415.313812 
	C190.807159,358.974365 273.755554,350.460022 331.916687,390.729095 
	C388.999084,430.251373 401.876617,503.760437 382.910187,546.891541 
	C381.194122,546.967529 380.858093,545.427307 380.209869,544.399719 
	C379.325531,542.997803 378.924103,541.242554 377.888977,539.992004 
	C368.635345,528.813538 370.917419,515.663452 370.594238,502.612732 
	C369.461884,456.885986 348.249420,422.608032 308.775055,399.996307 
	C288.205750,388.213776 265.451874,383.684937 241.875214,385.527496 
	C214.136932,387.695221 189.727066,398.259003 169.203232,417.327271 
	C146.857849,438.087769 134.426193,463.912292 131.643738,494.026978 
	C129.689987,515.172852 133.029434,535.779541 141.847931,555.393188 
	C146.299103,565.293274 151.583664,574.557922 158.522232,583.348267 
	C159.879517,577.132812 159.517975,571.357971 159.621933,565.605774 
	C159.760620,557.932434 162.573975,555.194031 170.345215,555.107971 
	C174.177002,555.065491 178.016129,554.972534 181.840576,555.148926 
	C187.527451,555.411316 190.195770,557.810486 190.292007,563.476746 
	C190.506897,576.129700 190.361710,588.788574 190.383240,601.445068 
	C190.400192,611.403687 193.198013,614.676941 203.697113,616.976685 
	C204.982620,614.699585 204.617203,612.161621 204.590210,609.736938 
	C204.339859,587.251770 205.178055,564.759460 204.052536,542.278381 
	C203.673203,534.701843 206.371399,532.032227 214.007980,531.844360 
	C217.672180,531.754211 221.338684,531.758972 225.004074,531.714966 
	C232.768707,531.621704 236.102081,534.707825 235.676666,542.592468 
	C235.083298,553.589966 235.493210,564.577026 235.413254,575.567322 
	C235.306625,590.229858 235.352798,604.893494 235.331665,619.556702 
	C235.321594,626.532654 235.831940,627.078735 242.907211,627.633667 
	C250.213593,628.206726 250.668228,627.810913 250.669342,620.669189 
	C250.673584,593.174988 250.674530,565.680786 250.663940,538.186584 
	C250.659805,527.446472 251.448853,526.625000 262.369843,526.621582 
	C267.356049,526.620056 272.342316,526.742676 277.707031,526.926025 
z"/>
<path fill="#000000" opacity="1.000000" stroke="none" 
	d="
M334.079132,539.148315 
	C335.556030,536.699219 336.789978,534.526306 338.132294,532.422607 
	C343.579956,523.884949 355.349426,523.821594 360.370361,532.543579 
	C374.816772,557.638611 389.157806,582.795349 403.357910,608.030518 
	C408.669525,617.469788 403.530273,627.151367 392.761658,628.515869 
	C389.799316,628.891235 386.782196,628.951782 383.789948,628.955383 
	C358.299500,628.985962 332.808960,628.969971 307.318451,628.967773 
	C306.818665,628.967773 306.318481,628.977356 305.819122,628.961975 
	C292.796692,628.559631 286.975769,618.551514 293.539978,607.276855 
	C301.916504,592.889160 310.705811,578.742310 319.246063,564.449158 
	C324.198151,556.161255 329.010620,547.790039 334.079132,539.148315 
M354.598999,576.433716 
	C354.313934,572.142578 354.092194,567.846008 353.720947,563.562378 
	C353.484192,560.830688 352.165222,558.599915 349.217682,558.527222 
	C346.193695,558.452637 344.705200,560.847046 344.583893,563.443298 
	C344.259796,570.381104 344.168518,577.339844 344.302612,584.284058 
	C344.356049,587.053040 346.133484,588.799011 349.181824,588.834534 
	C352.002655,588.867371 353.534149,587.350769 353.933228,584.749023 
	C354.307648,582.307983 354.384277,579.821228 354.598999,576.433716 
M346.436340,600.029541 
	C345.575989,600.791199 344.464600,601.402222 343.900909,602.341858 
	C341.979218,605.545044 343.294006,609.544312 346.652405,611.227844 
	C349.835968,612.823792 353.625275,611.502136 355.086761,608.286194 
	C356.568359,605.026001 354.745850,601.304871 351.021515,599.941833 
	C349.730682,599.469421 348.443146,599.297852 346.436340,600.029541 
z"/>
<path fill="#000000" opacity="1.000000" stroke="none" 
	d="
M615.627136,585.273865 
	C612.099915,576.112610 608.702820,567.315430 605.305786,558.518250 
	C605.097534,558.559143 604.889343,558.600037 604.681091,558.640930 
	C604.681091,565.683655 604.648438,572.726562 604.688660,579.769043 
	C604.749573,590.420044 604.821106,601.071411 604.975464,611.721252 
	C605.022400,614.961548 604.114563,616.778564 600.389771,616.380615 
	C597.587341,616.081116 594.701843,616.030518 591.903870,616.334290 
	C586.844666,616.883606 585.760010,614.481812 585.794006,609.918640 
	C585.992493,583.271301 586.041321,556.621887 585.923767,529.974182 
	C585.904968,525.698181 587.468628,524.390503 591.485718,524.578064 
	C596.473999,524.810913 601.508240,524.972473 606.470642,524.551697 
	C610.277344,524.229004 611.778687,525.850098 612.954224,529.095947 
	C619.640625,547.557617 626.475525,565.965515 633.268311,584.388550 
	C633.662659,585.458313 634.130127,586.501099 634.926331,588.439697 
	C636.969421,583.287231 638.801514,578.922546 640.440857,574.486633 
	C646.095398,559.186401 651.724915,543.876465 657.252991,528.530334 
	C658.149292,526.042114 659.281494,524.580139 662.182556,524.648743 
	C668.011169,524.786621 673.849060,524.785217 679.676514,524.614929 
	C682.684448,524.527039 683.331238,525.983521 683.327515,528.577148 
	C683.287415,556.404663 683.280762,584.232300 683.327087,612.059753 
	C683.331970,614.985168 682.236084,616.398865 679.228333,616.299377 
	C676.565247,616.211304 673.870117,616.048340 671.236450,616.342285 
	C666.309814,616.891907 664.569824,615.230774 664.667908,609.998169 
	C664.995789,592.509277 664.792236,575.010376 664.196167,557.308044 
	C660.534424,567.068054 656.924988,576.848083 653.195435,586.582092 
	C649.860596,595.286011 646.326111,603.913696 643.023438,612.629395 
	C641.976318,615.392761 640.308044,616.412476 637.378479,616.350037 
	C626.595581,616.120422 627.891968,617.424011 624.529602,607.943665 
	C621.860474,600.417969 618.699768,593.066650 615.627136,585.273865 
z"/>
<path fill="#000000" opacity="1.000000" stroke="none" 
	d="
M312.888092,434.679657 
	C318.849548,431.445099 324.549500,431.480591 329.688232,435.221222 
	C334.352081,438.616241 335.253448,443.817139 334.144440,449.180023 
	C332.865662,455.363922 328.667328,458.953247 322.620453,460.247375 
	C320.196716,460.766083 318.489624,461.884460 316.808777,463.694275 
	C301.395874,480.289856 285.925171,496.832703 270.357635,513.283325 
	C264.815063,519.140259 261.797699,519.413635 255.154022,514.781433 
	C245.729126,508.210114 236.453354,501.424683 227.122925,494.718170 
	C222.691071,491.532623 220.144928,491.612549 216.177795,495.526672 
	C207.876755,503.716766 199.709839,512.042847 191.400360,520.224304 
	C189.560532,522.035706 189.149918,524.059875 189.022903,526.502136 
	C188.471588,537.101807 179.686493,543.239014 169.543549,540.526123 
	C162.282959,538.584290 159.810745,532.573120 159.989243,526.521362 
	C160.190659,519.691833 165.346863,514.389771 171.819168,513.791016 
	C174.240723,513.566956 176.251709,513.088806 178.054092,511.255096 
	C186.576569,502.584595 195.175262,493.987823 203.834503,485.453796 
	C206.441635,482.884399 207.899429,479.876892 208.657135,476.356110 
	C209.762558,471.219696 213.926987,467.337036 218.771683,466.677063 
	C225.019577,465.825958 231.329681,468.141876 232.958572,473.498871 
	C235.225327,480.953613 240.763992,484.736511 246.486389,488.744049 
	C249.757523,491.034912 253.004379,493.382446 256.079437,495.925446 
	C259.544525,498.790955 262.207001,498.632233 265.379822,495.165039 
	C275.717163,483.868622 286.320648,472.815460 296.843781,461.689606 
	C298.903870,459.511566 301.126526,457.485870 303.160156,455.284546 
	C305.778107,452.450714 307.919098,449.626465 307.358734,445.155060 
	C306.832794,440.957947 309.274872,437.531067 312.888092,434.679657 
z"/>
<path fill="#000000" opacity="1.000000" stroke="none" 
	d="
M437.298279,572.323853 
	C442.646240,557.383545 447.895538,542.821899 453.019348,528.216309 
	C453.935364,525.605042 455.372437,524.493652 458.158539,524.638611 
	C461.481659,524.811462 464.822296,524.636963 468.155334,524.632446 
	C476.911133,524.620605 476.922974,524.620483 479.934326,532.906799 
	C489.201019,558.405823 498.459534,583.907898 507.717346,609.410095 
	C510.092163,615.951904 509.870636,616.246521 502.657532,616.285706 
	C489.165405,616.359009 489.172272,616.356628 484.715485,603.425110 
	C484.064697,601.536865 483.236084,599.708069 482.626160,597.808044 
	C481.778687,595.167908 480.007599,594.272156 477.318390,594.304138 
	C469.486481,594.397217 461.650635,594.435913 453.820770,594.276245 
	C450.800598,594.214661 449.256500,595.435303 448.374786,598.211670 
	C446.863708,602.970032 445.024475,607.625488 443.556732,612.395996 
	C442.689972,615.213257 441.191376,616.465027 438.161133,616.362183 
	C432.921661,616.184204 427.671753,616.312805 421.530670,616.312805 
	C426.988190,601.076294 432.072449,586.881897 437.298279,572.323853 
M461.739227,557.148254 
	C459.995850,564.132385 456.308594,570.571960 455.367920,578.108887 
	C460.806152,579.148315 465.788696,578.582764 470.729797,578.631287 
	C475.981140,578.682922 476.425049,578.056458 474.821198,573.201233 
	C472.477264,566.105591 470.037811,559.040833 467.558807,551.991028 
	C467.105072,550.700806 466.909973,549.079468 464.836945,548.448120 
	C463.882019,551.150024 462.951508,553.782837 461.739227,557.148254 
z"/>
<path fill="#000000" opacity="1.000000" stroke="none" 
	d="
M423.731232,430.000000 
	C423.735992,422.000946 423.893158,414.497681 423.683411,407.004669 
	C423.576477,403.183868 424.787689,401.627808 428.787567,401.662445 
	C445.284424,401.805450 461.783752,401.776855 478.281067,401.658966 
	C481.868225,401.633301 483.377502,402.766083 483.275970,406.549744 
	C482.896820,420.679199 484.854919,418.099640 471.748657,418.308502 
	C463.584900,418.438629 455.415192,418.463867 447.252991,418.298401 
	C443.552338,418.223389 442.373413,419.661346 442.302551,423.297546 
	C442.024567,437.563385 441.922913,437.591705 456.288940,437.646698 
	C462.785614,437.671570 469.282867,437.548096 475.779846,437.494324 
	C476.440430,437.488861 477.345795,437.217957 477.724182,437.546448 
	C481.790253,441.076294 478.486908,445.615387 479.220428,449.647308 
	C479.672455,452.132141 477.665405,452.489441 475.604248,452.473175 
	C467.272583,452.407532 458.937622,452.274384 450.609100,452.435913 
	C442.913818,452.585144 442.381409,453.281555 442.375305,460.812225 
	C442.372589,464.145172 442.538849,467.487274 442.344696,470.808655 
	C442.125458,474.559540 443.775604,475.761841 447.378479,475.710876 
	C458.041565,475.559998 468.710388,475.767395 479.371765,475.563873 
	C482.601471,475.502228 484.241180,476.127930 483.492249,479.676025 
	C483.322266,480.481201 483.368652,481.335266 483.345490,482.167664 
	C483.089874,491.349854 483.091492,491.360809 473.673157,491.367279 
	C459.008179,491.377380 444.341309,491.238342 429.679413,491.451050 
	C425.182495,491.516235 423.579224,490.163177 423.638214,485.492310 
	C423.869598,467.164062 423.732239,448.831177 423.731232,430.000000 
z"/>
<path fill="#000000" opacity="1.000000" stroke="none" 
	d="
M562.802795,503.948792 
	C562.792114,478.970398 562.904297,454.484528 562.667419,430.002014 
	C562.618591,424.948273 564.140625,422.848236 569.201721,423.641479 
	C570.177307,423.794373 571.209656,423.768585 572.194275,423.648590 
	C577.205017,423.038086 581.336060,423.496643 580.202454,430.546448 
	C592.797180,420.898590 605.085327,419.973297 615.727844,427.735107 
	C623.205200,433.188507 626.593384,441.210083 628.006714,449.888611 
	C629.469604,458.872101 628.499329,467.859070 624.815125,476.329346 
	C617.829895,492.389221 598.276123,497.987915 583.662903,488.205658 
	C582.884705,487.684692 581.996399,487.328217 580.070984,486.332153 
	C580.070984,493.736115 579.826538,500.327667 580.151306,506.891083 
	C580.393860,511.793823 578.896973,514.208801 573.706421,513.365112 
	C573.057129,513.259583 572.376221,513.350830 571.709961,513.347656 
	C562.097229,513.302124 562.842407,514.134644 562.802795,503.948792 
M580.543579,450.406769 
	C579.945129,454.371033 579.773193,458.386078 580.345093,462.324646 
	C582.117920,474.534302 590.942017,478.278137 599.731812,476.301147 
	C606.975952,474.671814 610.851929,467.136841 610.719849,456.648529 
	C610.597290,446.916840 606.404663,440.138733 599.310608,438.203522 
	C590.886108,435.905396 584.869263,439.616333 580.543579,450.406769 
z"/>
<path fill="#000000" opacity="1.000000" stroke="none" 
	d="
M745.342407,452.186035 
	C745.210022,463.425751 746.654419,462.312225 735.848267,462.383575 
	C725.693604,462.450592 715.537720,462.342834 705.383545,462.440308 
	C700.163940,462.490417 699.228210,464.043152 701.075623,468.970520 
	C705.004333,479.448914 719.100830,481.787109 726.430115,473.176056 
	C729.393066,469.694916 739.766602,467.412476 743.601807,469.362640 
	C745.675049,470.416840 745.042297,471.955688 744.595703,473.627625 
	C741.632690,484.719482 730.644287,492.565613 717.249512,493.083252 
	C692.986328,494.020844 677.608276,475.726959 682.058594,451.218445 
	C684.333252,438.691620 689.692200,427.907684 702.652100,424.157654 
	C723.580322,418.102020 743.222656,427.421997 745.342407,452.186035 
M704.994873,449.790588 
	C712.240234,449.790588 719.485596,449.790588 726.657837,449.790588 
	C727.111450,442.286041 721.715820,436.795074 714.364441,436.413940 
	C708.306824,436.099884 701.282166,441.896393 700.835815,447.448517 
	C700.606812,450.297852 702.640930,449.589355 704.994873,449.790588 
z"/>
<path fill="#000000" opacity="1.000000" stroke="none" 
	d="
M502.877441,530.309204 
	C502.542023,526.264099 503.509827,524.495911 507.787872,524.543030 
	C528.926208,524.775513 550.069275,524.776184 571.208435,524.593323 
	C575.802063,524.553589 577.574829,525.914795 577.040527,530.602112 
	C576.652466,534.006653 576.964600,537.491028 576.964600,541.438354 
	C569.638000,541.438354 563.023987,541.378418 556.411560,541.454895 
	C549.530457,541.534424 549.127747,541.989258 549.131287,548.920654 
	C549.141724,569.229004 549.163147,589.537292 549.188171,609.845642 
	C549.195923,616.105347 549.048096,616.266418 542.795715,616.300659 
	C529.658081,616.372559 529.661255,616.372559 529.664551,603.137634 
	C529.669006,585.159363 529.675171,567.181091 529.665955,549.202820 
	C529.662231,541.920227 529.644592,541.912170 522.583191,541.892944 
	C517.922241,541.880310 513.247070,541.670654 508.604187,541.962158 
	C504.252716,542.235291 502.391235,540.634094 502.846588,536.249878 
	C503.034729,534.438293 502.877808,532.590881 502.877441,530.309204 
z"/>
<path fill="#000000" opacity="1.000000" stroke="none" 
	d="
M824.979675,468.977600 
	C829.338440,468.712585 832.365112,468.965088 834.825867,473.276306 
	C838.466553,479.655029 849.490845,480.686798 855.355896,476.093262 
	C858.516846,473.617615 858.305603,470.147583 854.784363,467.975555 
	C850.133789,465.106964 844.722351,464.676178 839.591309,463.337982 
	C836.216003,462.457733 832.774353,461.679840 829.557312,460.375397 
	C821.962097,457.295715 818.089355,451.403442 818.135559,443.258667 
	C818.178650,435.643005 821.728577,429.625244 828.415466,426.136261 
	C839.875366,420.156799 851.597168,420.923218 862.960693,426.530487 
	C868.492859,429.260345 871.413025,434.393616 873.016296,440.223175 
	C873.999573,443.798676 872.762390,445.637299 868.814575,445.357941 
	C866.493347,445.193634 864.147522,445.249420 861.819031,445.350647 
	C859.381653,445.456573 858.006042,444.554382 856.804016,442.246796 
	C853.583130,436.063263 843.526978,434.077972 838.021362,438.242889 
	C834.741516,440.724060 834.692627,443.332825 837.841614,446.058014 
	C840.773743,448.595490 844.466919,448.938171 848.031982,449.714508 
	C854.360779,451.092621 860.829224,452.036133 866.405945,455.759552 
	C875.293701,461.693726 877.212708,475.331726 870.258850,483.498016 
	C859.209534,496.473724 831.508667,496.239685 820.705200,483.045837 
	C819.766052,481.898987 818.918823,480.600342 818.352661,479.237671 
	C815.549866,472.492584 814.862000,468.153809 824.979675,468.977600 
z"/>
<path fill="#000000" opacity="1.000000" stroke="none" 
	d="
M762.553467,427.422607 
	C774.275330,420.333344 786.079102,421.123138 797.809631,425.983673 
	C803.864380,428.492432 807.191345,433.741638 808.907959,439.985596 
	C809.836609,443.363586 809.274780,445.593811 805.052551,445.343506 
	C802.561401,445.195831 800.052551,445.218964 797.557007,445.309967 
	C795.337769,445.390900 793.990479,444.658325 792.819214,442.562347 
	C789.424011,436.486115 780.183655,434.298431 774.502808,437.947784 
	C770.643311,440.427094 770.432312,443.494415 774.022766,446.351685 
	C777.857056,449.403076 782.728638,449.389923 787.175903,450.625427 
	C791.016052,451.692261 794.954468,452.490143 798.680847,453.864136 
	C805.996704,456.561676 809.818970,462.136536 810.271851,469.813873 
	C810.740051,477.749695 807.887939,484.381378 800.733032,488.251526 
	C787.080017,495.636566 773.571411,494.887329 760.528870,486.486511 
	C756.393005,483.822571 754.079773,479.807068 752.908264,475.146332 
	C752.513000,473.574249 752.171326,471.759857 753.229126,470.300781 
	C755.006042,467.849823 767.668213,468.800781 769.313843,471.427826 
	C773.809387,478.604218 781.801270,480.955963 789.210571,477.259857 
	C791.372314,476.181519 793.340332,474.773987 793.389282,472.112946 
	C793.435425,469.602600 791.467224,468.443481 789.529175,467.344543 
	C786.427429,465.585632 782.993103,464.989685 779.573120,464.282928 
	C776.151245,463.575775 772.649170,463.056458 769.365723,461.923187 
	C762.963379,459.713470 756.604675,456.943207 754.939331,449.474426 
	C753.028320,440.903748 754.868042,433.256653 762.553467,427.422607 
z"/>
<path fill="#000000" opacity="1.000000" stroke="none" 
	d="
M523.109497,472.315643 
	C520.501709,471.115814 520.028931,473.240356 519.182678,474.475525 
	C515.982544,479.145813 512.866455,483.874451 509.775055,488.617798 
	C508.948547,489.885986 508.301270,491.187317 506.558136,491.459534 
	C504.894592,491.719330 491.271942,491.048889 489.297821,490.458252 
	C488.649902,488.920105 489.803467,488.010773 490.552734,486.962738 
	C496.848969,478.155823 503.042847,469.272736 509.502930,460.587708 
	C511.585571,457.787750 511.314423,455.785583 509.375885,453.078705 
	C503.755127,445.230103 498.396667,437.192871 492.983978,429.196747 
	C492.083344,427.866272 490.743317,426.686646 490.894073,423.920471 
	C496.877411,423.519073 502.893341,423.291931 508.883087,424.126831 
	C510.748840,424.386902 511.466095,426.616791 512.428162,428.140137 
	C515.606506,433.172882 518.690613,438.265167 522.137817,443.865845 
	C526.797729,439.308136 529.465942,434.129822 532.158264,429.133179 
	C534.458435,424.864410 537.321777,423.050598 542.096436,423.612061 
	C546.308716,424.107391 550.640320,423.074799 555.182800,424.276886 
	C554.416626,427.018982 552.625488,428.808167 551.237488,430.787537 
	C545.978516,438.287048 540.716736,445.787292 535.286438,453.162415 
	C533.296753,455.864594 533.286804,458.010345 535.292419,460.755310 
	C540.889160,468.414825 546.258850,476.241211 551.657959,484.043427 
	C553.025269,486.019348 554.831421,487.830719 555.206970,491.208923 
	C548.926270,491.208923 543.021912,491.282684 537.121582,491.161255 
	C535.478271,491.127411 534.702393,489.566162 533.868652,488.310364 
	C530.371277,483.042480 526.862000,477.782501 523.109497,472.315643 
z"/>
<path fill="#000000" opacity="1.000000" stroke="none" 
	d="
M332.455963,499.491638 
	C332.425873,501.445801 332.266693,502.958801 332.426971,504.437134 
	C333.769867,516.821106 330.778320,527.734192 323.568176,538.170288 
	C315.657806,549.619751 309.167572,562.049927 302.029480,574.035400 
	C301.724548,574.547485 301.127502,574.885620 300.698914,575.275330 
	C298.175537,574.197144 298.825134,572.113281 298.824585,570.444702 
	C298.816467,545.994568 298.859863,521.544434 298.939056,497.094452 
	C298.946014,494.941559 299.203461,492.778259 299.492157,490.639740 
	C300.214478,485.289124 302.559113,483.144440 308.064301,482.964783 
	C312.384766,482.823792 316.712616,482.863098 321.036743,482.889893 
	C329.707550,482.943634 333.066040,486.413147 332.839386,495.062164 
	C332.804626,496.388489 332.600647,497.710419 332.455963,499.491638 
z"/>
<path fill="#000000" opacity="1.000000" stroke="none" 
	d="
M638.662476,439.004059 
	C638.663025,437.339111 638.640869,436.172852 638.667908,435.007751 
	C638.974182,421.817993 636.429138,423.940308 650.534241,423.629181 
	C653.185669,423.570709 654.700928,424.290344 654.372314,427.293152 
	C654.214417,428.736359 654.012451,430.289856 655.154236,431.617126 
	C657.303101,431.608551 657.633728,429.591797 658.593689,428.450836 
	C663.198181,422.978149 669.227356,422.087555 675.811401,422.754822 
	C677.300049,422.905670 678.404785,423.574341 678.420654,425.207245 
	C678.465515,429.817871 678.436340,434.429199 678.436340,438.450684 
	C676.635315,439.838837 675.444153,439.430786 674.316589,439.406738 
	C662.321655,439.151184 655.665161,445.450226 655.379150,457.508728 
	C655.248840,463.001099 655.353210,468.499054 655.352417,473.994476 
	C655.351562,479.476929 655.352234,484.959351 655.352234,491.369934 
	C650.396240,491.369934 645.490601,491.558044 640.609131,491.296051 
	C637.880310,491.149597 638.665161,488.682434 638.663452,486.964600 
	C638.647156,471.144165 638.658997,455.323730 638.662476,439.004059 
z"/>
</svg>